<?xml version="1.0" encoding="UTF-8"?>
<svg id="Capa_2" data-name="Capa 2" xmlns="http://www.w3.org/2000/svg" viewBox="0 0 28.39 94">
  <defs>
    <style>
      .cls-1 {
        fill: #fff;
      }
    </style>
  </defs>
  <g id="Capa_1-2" data-name="Capa 1">
    <path class="cls-1" d="M3.84,2.15c23.42,24.67,14.4,61.31,5.2,90.18h2.41c-1-6.68-4.03-12.72-9.63-16.66l-1.26,2.16c5.33,3.61,7.28,9.1,8.43,15.25.15.78,1.2,1.16,1.84.75,4.76-3.08,10.61-6.5,16.37-6.83,1.6-.09,1.61-2.59,0-2.5-6.22.36-12.5,3.85-17.63,7.17l1.84.75c-1.27-6.83-3.69-12.77-9.57-16.75-1.34-.91-2.57,1.24-1.26,2.16,5.07,3.56,7.59,9.18,8.48,15.17.2,1.31,2.07,1.07,2.41,0C20.96,63.19,29.72,25.78,5.61.38c-1.11-1.17-2.88.6-1.77,1.77h0Z"/>
  </g>
</svg>