<?xml version="1.0" encoding="UTF-8"?>
<svg id="Capa_2" data-name="Capa 2" xmlns="http://www.w3.org/2000/svg" xmlns:xlink="http://www.w3.org/1999/xlink" viewBox="0 0 380.43 448.31">
  <defs>
    <style>
      .cls-1 {
        fill: #cea784;
      }

      .cls-2 {
        fill: #fed13b;
      }

      .cls-3 {
        fill: none;
      }

      .cls-4 {
        fill: #f2f2f2;
      }

      .cls-5 {
        fill: #2d3e53;
      }

      .cls-6 {
        fill: #fe5178;
      }

      .cls-7 {
        clip-path: url(#clippath);
      }
    </style>
    <clipPath id="clippath">
      <path class="cls-3" d="M371.88,46.87l-51.28-41.68c-9.92-8.07-24.51-6.56-32.57,3.36l-111.16,136.76-71.72,88.24-61.06,75.12c-5.08,6.25-8.54,13.67-10.07,21.58L.27,430.01c-2.25,12.07,9.8,21.81,21.13,17.09l90.78-53.27c7.46-3.11,14.04-8.02,19.14-14.3l61.04-75.09,71.72-88.24,111.16-136.76c8.07-9.92,6.56-24.51-3.36-32.57Z"/>
    </clipPath>
  </defs>
  <g id="Capa_1-2" data-name="Capa 1">
    <g class="cls-7">
      <g>
        <rect class="cls-4" x="227.91" y="52.83" width="133.2" height="73.67" transform="translate(122.53 -165.68) rotate(39.11)"/>
        <rect class="cls-4" x="15.49" y="341.79" width="133.2" height="18.4" transform="translate(239.78 26.85) rotate(39.11)"/>
        <rect class="cls-1" x="-17.2" y="348.58" width="133.2" height="85.28" transform="translate(257.83 56.48) rotate(39.11)"/>
        <rect class="cls-5" x="-52.46" y="421.33" width="133.2" height="26.51" transform="translate(277.29 88.44) rotate(39.11)"/>
        <rect class="cls-6" x="265.39" y="20.97" width="133.2" height="45.17" transform="translate(101.85 -199.65) rotate(39.11)"/>
        <rect class="cls-2" x="112.99" y="85.68" width="133.2" height="290.73" transform="translate(185.97 -61.52) rotate(39.11)"/>
      </g>
    </g>
  </g>
</svg>